<svg width="89" height="74" viewBox="0 0 89 74" fill="none" xmlns="http://www.w3.org/2000/svg">
<g clip-path="url(#clip0_35_10)">
<path d="M24.299 40.4578C22.4206 39.472 21.8072 38.1905 18.9321 37.2048C16.0953 34.0175 14.9836 30.0087 14.9836 26.0328C14.9836 23.1084 15.5586 20.2168 16.517 17.5881L19.3921 22.4841C19.2388 23.5684 19.1621 24.7513 19.1621 26.0328C19.1621 42.2979 31.736 45.5838 45.0383 45.5509C58.3023 45.5838 70.9146 42.2979 70.9146 26.0328C70.9146 24.357 70.7996 22.8455 70.5312 21.4326L72.6013 17.8181C73.6747 20.1183 74.2881 23.0755 74.2114 26.0657C74.0964 30.8631 72.2946 35.7261 68.0778 38.0263L67.3877 38.8806L66.6594 39.6692L65.8927 40.3921L65.0876 41.0821L64.2059 41.7064L63.2859 42.2979L62.3275 42.8236L61.3308 43.3165L60.2957 43.7437L59.2607 44.138L58.1873 44.4666L57.0756 44.7623L55.9639 45.0252L54.8138 45.2552L53.6254 45.4523L52.437 45.6166L51.2486 45.748L50.0219 45.8466L48.7952 45.9123L47.5685 45.9781L46.3034 46.0109H43.735L42.4699 45.9781L41.2432 45.9123L40.0164 45.8466L38.7897 45.748L37.6013 45.6166L36.4129 45.4523L35.2245 45.2552L34.0745 45.0252L32.9628 44.7623L31.8511 44.4666L30.7777 44.138L29.7426 43.7437L28.7076 43.3165L27.7109 42.8236L26.7525 42.2979L25.8324 41.7064L24.9507 41.0821L24.299 40.4578Z" fill="#D0D0D0"/>
<path d="M73.0997 10.0964C66.1227 3.59033 54.5838 2.21033 45 2.21033C35.1862 2.21033 23.379 3.65603 16.4403 10.5235L16.5553 10.6221L16.747 10.7535L16.8237 10.8192C18.3187 12.0679 19.9671 13.3822 21.6539 14.138C21.9222 14.2366 22.2289 14.2694 22.5356 14.1708C27.1742 8.02633 35.9146 6.51483 45 6.51483C53.9321 6.48193 62.5192 7.96053 67.2344 13.908L72.793 10.2935L73.0997 10.0964ZM69.7645 11.345C62.3275 5.75903 54.4305 4.37893 45 4.44473C35.4545 4.37893 27.1358 5.85763 19.7755 11.805L17.207 10.4578L17.9354 9.80063L19.0088 8.94633L20.1205 8.15773L21.2705 7.43483L22.4973 6.77763L23.7623 6.18623L25.0657 5.66043L26.4074 5.16753L27.7875 4.74043L29.1676 4.34613L30.586 4.01753L32.0044 3.72183L33.4611 3.45893L34.9179 3.22893L36.3746 3.06463L37.8313 2.93323L39.2881 2.83463L40.7448 2.73603L42.2015 2.67033L43.6199 2.63743H45H46.3801L47.7985 2.67033L49.2552 2.73603L50.7119 2.83463L52.1687 2.93323L53.6254 3.06463L55.0822 3.22893L56.5389 3.45893L57.9956 3.72183L59.414 4.01753L60.8324 4.34613L62.2125 4.74043L63.5926 5.16753L64.9343 5.66043L66.2377 6.18623L67.5027 6.84333L68.7295 7.50053L69.8795 8.22343L70.9912 9.01203L72.0646 9.86633L72.2946 10.0635L69.7645 11.345Z" fill="#D0D0D0"/>
<path d="M44.9233 36.1205C41.7415 30.2716 38.253 27.6429 32.9628 25.7371L19.6988 21.8926L17.8587 17.5553C21.1172 19.6911 25.9474 21.1698 30.5093 22.6813C37.6013 25.0142 41.4348 27.9386 44.9233 33.9847V36.1205Z" fill="#D0D0D0"/>
<path d="M44.9233 36.1204C48.1052 30.2716 51.5937 27.2486 56.8839 25.3756L70.0329 21.3669L71.873 17.1609C68.6145 19.2968 63.4392 20.9397 58.839 22.4512C51.747 24.7842 48.4118 27.9715 44.9617 33.9846L44.9233 36.1204Z" fill="#D0D0D0"/>
<path d="M73.8664 10.8521L73.483 11.1807C73.4063 12.9879 73.0613 14.828 72.7546 16.5695C74.2497 19.2968 74.9397 22.5827 75.0548 26.0328C75.2848 36.219 69.2278 46.931 45 47.621C29.7809 47.5224 20.1971 43.4808 16.287 35.1018C13.6802 33.6889 12.4534 31.0931 11.2267 28.5629L11.1884 27.8729L11.15 26.0328L11.1884 24.1927L11.3417 22.4512L11.6101 20.8083L11.9934 19.2639L12.4534 17.7853L12.9901 16.4052L13.6418 15.1237L14.3702 13.908L15.1752 12.7908L15.9036 11.9036C16.1719 13.6451 16.517 15.9123 17.1687 16.3724C24.874 21.9255 38.4447 21.2026 44.9617 32.3746C52.0537 19.9868 64.5509 21.564 72.2563 16.0109L72.9847 10.6878C64.0142 19.0011 51.7853 16.1752 44.9617 28.6287C37.563 16.3724 25.5257 19.3954 16.517 11.1807L16.1336 10.8521C12.7218 14.368 10.575 19.2639 10.575 26.0328C10.575 46.5367 30.0876 49.8554 44.9617 49.8554C59.8357 49.8554 79.3483 46.5367 79.3483 26.0328C79.3866 19.2639 77.2782 14.368 73.8664 10.8521ZM54.7371 20.0197L55.5805 19.6254L56.5005 19.2311L58.3406 18.5082C59.9124 17.9167 61.5224 17.3581 63.0942 16.7995L65.0109 16.0438L65.9693 15.6495L66.9277 15.2223L67.8861 14.7294L68.8445 14.2365L69.7645 13.6779L70.6845 13.0865L71.6046 12.4293L72.2563 11.9036L71.7196 15.7152L71.1829 16.0766L70.4545 16.5367L69.6878 16.9638L68.8828 17.3581L68.0778 17.7196L67.2344 18.0482L66.391 18.3767L65.5093 18.6725C63.7075 19.2968 61.8675 19.8554 60.0274 20.4797L58.1489 21.1369L57.1906 21.4983L56.2322 21.8926L55.3121 22.3198L54.3921 22.7798L53.4721 23.2727L52.552 23.7984L51.632 24.357L51.0569 24.7842C51.4786 23.1413 52.5903 21.5969 54.7371 20.0197ZM49.4469 23.5684L49.6769 23.3713L50.4819 22.7141L51.287 22.0898L52.1303 21.5312L52.2453 21.4655C51.1719 22.8127 50.5203 24.0942 50.2902 25.3756L49.9069 25.6714L49.0635 26.3943L48.4118 27.0186C48.3351 25.9014 48.6802 24.7842 49.4469 23.5684ZM17.0153 12.265L17.897 12.9551L18.8171 13.5794L19.7371 14.1708L20.6572 14.6966L21.5772 15.1894L22.5356 15.6495L23.494 16.0766L24.4523 16.4709L26.3691 17.1938C27.9408 17.7524 29.5509 18.2782 31.1227 18.8368L33.0011 19.5268C34.4578 21.0712 35.8762 22.5827 37.0263 24.1927L36.5279 23.9299L35.5695 23.4698L34.6112 23.0427L33.6528 22.6155L32.6944 22.2212L30.701 21.4655C28.7842 20.8083 26.8675 20.184 24.9507 19.5268L23.1106 18.8696L22.2289 18.5082L21.3855 18.1467L20.5422 17.7524L19.7371 17.3581L18.9704 16.931L18.2037 16.4709L17.5137 16.0109L17.3603 15.8466L17.207 15.518L17.0537 15.0252L16.862 14.4008L16.7086 13.7108C16.5936 13.0536 16.4786 12.3965 16.3636 11.7393L17.0153 12.265Z" fill="#D0D0D0"/>
<mask id="mask0_35_10" style="mask-type:luminance" maskUnits="userSpaceOnUse" x="0" y="0" width="89" height="74">
<path d="M89 0H0V74H89V0Z" fill="white"/>
</mask>
<g mask="url(#mask0_35_10)">
<path d="M24.0211 63.998V73.9996H19.4048V65.2505C19.4048 65.2505 19.2203 63.9812 17.863 63.9812H15.4597V73.9996H10.9728V63.9812H6.9192V73.9996H2.38251V60.1359H19.2203C23.9274 60.1359 24.0211 63.998 24.0211 63.998ZM40.686 60.1359H51.6506L46.6301 63.9808H40.686V60.1359ZM28.4408 65.3498H35.132V64.7144C35.132 64.7144 35.132 63.8072 33.523 63.8072H25.0028V60.1363H34.9326C40.1114 60.1363 39.6193 64.6483 39.6193 64.6483V70.8925L53.5767 60.1366H65.86C71.4372 60.1366 72.1408 63.3106 72.1408 67.1442C72.1408 69.8868 71.7589 74 66.1792 74H56.0144L56.0061 63.2234L41.9695 74L28.4404 73.9965C27.7692 73.9965 24.0235 74.2233 24.0235 69.5326C24.024 65.0702 27.7696 65.3498 28.4408 65.3498ZM60.6712 70.1543H64.5782C67.0735 70.1543 67.6 69.3523 67.6 67.1743C67.6 64.99 67.073 63.9812 64.5782 63.9812H60.6712V70.1543ZM29.8151 70.5301H35.0524L35.0553 68.4987H29.8184C29.3873 68.4987 28.549 68.4987 28.549 69.4884C28.549 70.4921 29.3844 70.5301 29.8151 70.5301ZM54.6894 70.1543V73.9996H43.8807L48.7925 70.1543H54.6894ZM76.4506 65.3498H83.1451V64.7144C83.1451 64.7144 83.1451 63.8072 81.5329 63.8072H73.013V60.1363H82.9457C88.1183 60.1363 87.6291 64.6483 87.6291 64.6483V73.9965H76.4502C75.7803 73.9965 72.0346 74.2233 72.0346 69.5326C72.0346 65.0702 75.7807 65.3498 76.4506 65.3498ZM77.8258 70.5301H83.0606L83.0664 68.4987H77.8291C77.3984 68.4987 76.5576 68.4987 76.5576 69.4884C76.5572 70.4921 77.395 70.5301 77.8258 70.5301Z" fill="#D0D0D0"/>
</g>
</g>
<defs>
<clipPath id="clip0_35_10">
<rect width="89" height="74" fill="white"/>
</clipPath>
</defs>
</svg>
